<?xml version="1.0" encoding="utf-8"?>
<!-- Generator: Adobe Illustrator 15.0.2, SVG Export Plug-In . SVG Version: 6.00 Build 0)  -->
<!DOCTYPE svg PUBLIC "-//W3C//DTD SVG 1.1//EN" "http://www.w3.org/Graphics/SVG/1.1/DTD/svg11.dtd">
<svg version="1.1" id="Layer_1" xmlns="http://www.w3.org/2000/svg" xmlns:xlink="http://www.w3.org/1999/xlink" x="0px" y="0px"
	 width="612px" height="792px" viewBox="0 0 612 792" enable-background="new 0 0 612 792" xml:space="preserve">
<g>
	<g>
		<path fill="#FFFFFF" d="M267.472,295.269c-1.818,0-3.513-0.926-4.494-2.457c-0.981-1.53-1.116-3.456-0.357-5.108
			c0,0,9.151-19.936,9.152-19.938c0.586-1.286,1.379-2.543,2.357-3.737c3.333-4.075,8.241-6.414,13.462-6.414
			c2.5,0,4.938,0.535,7.246,1.592c7.183,3.294,11.221,11.052,9.822,18.865c-0.283,1.586-0.699,2.964-1.273,4.211l-4.528,9.869
			c-0.87,1.896-2.766,3.112-4.853,3.112h-7.601c-0.086,0.004-0.172,0.006-0.259,0.006L267.472,295.269L267.472,295.269z"/>
		<path id="left_knuckle" fill="#010101" d="M286.146,289.924h2.933h4.927l4.531-9.874c0.438-0.951,0.692-1.937,0.868-2.919
			c0.943-5.272-1.701-10.738-6.789-13.071c-1.596-0.73-3.282-1.108-5.024-1.108c-3.664,0-7.07,1.694-9.332,4.459
			c-0.638,0.779-1.203,1.632-1.631,2.573c-0.005,0.007-0.008,0.01-0.008,0.016l-9.149,19.932h10.019h8.656L286.146,289.924
			L286.146,289.924z"/>
		<g id="pencil">
			<path fill="#010101" d="M385.249,397.958l36.298,6.318l-21.204-30.127l-162.789-94.562l-15.095,23.807L385.249,397.958z
				 M387.758,388.347c1.366-2.166,4.824-2.438,5.728-1.862c-0.902-0.572-2.138-3.816-0.765-5.977
				c1.367-2.168,4.763-3.587,4.763-3.587l12.184,17.312l-2.273,3.585l-20.853-3.631C386.54,394.188,386.377,390.512,387.758,388.347
				z"/>
			<path fill="#010101" d="M385.249,397.958l36.298,6.318l-21.204-30.127l-162.789-94.562l-15.095,23.807L385.249,397.958z
				 M387.758,388.347c1.366-2.166,4.824-2.438,5.728-1.862c-0.902-0.572-2.138-3.816-0.765-5.977
				c1.367-2.168,4.763-3.587,4.763-3.587l12.184,17.312l-2.273,3.585l-20.853-3.631C386.54,394.188,386.377,390.512,387.758,388.347
				z"/>
			<g>
				<path fill="#010101" d="M211.587,279.811c-4.167,6.573-2.221,15.282,4.359,19.447l15.093-23.807
					C224.463,271.284,215.762,273.234,211.587,279.811z"/>
				<path fill="#010101" d="M211.587,279.811c-4.167,6.573-2.221,15.282,4.359,19.447l15.093-23.807
					C224.463,271.284,215.762,273.234,211.587,279.811z"/>
			</g>
			<path fill="#FFFFFF" d="M421.547,410.308c-0.342,0-0.688-0.028-1.035-0.089l-36.295-6.319c-0.701-0.123-1.379-0.373-1.997-0.729
				l-162.789-94.562c-1.42-0.825-2.442-2.192-2.832-3.782c-0.388-1.593-0.113-3.279,0.765-4.665l15.098-23.805
				c1.143-1.808,3.096-2.803,5.096-2.803c1.029,0,2.071,0.265,3.024,0.818l162.791,94.562c0.751,0.438,1.405,1.031,1.903,1.744
				l21.202,30.129c1.405,1.994,1.469,4.642,0.164,6.7C425.528,409.271,423.587,410.308,421.547,410.308L421.547,410.308z"/>
			<path fill="#010101" d="M421.547,404.276l-21.204-30.127L279.547,303.98c-7.767,5.835-11.096,15.475-18.129,22.043
				l123.831,71.935L421.547,404.276z M387.758,388.347c1.366-2.166,4.824-2.438,5.728-1.862c-0.902-0.572-2.138-3.816-0.765-5.977
				c1.367-2.168,4.763-3.587,4.763-3.587l12.184,17.312l-2.273,3.585l-20.853-3.631C386.54,394.188,386.377,390.512,387.758,388.347
				z"/>
			<path fill="#010101" d="M279.547,303.98l-41.993-24.394l-15.095,23.807l38.959,22.63
				C268.451,319.455,271.78,309.815,279.547,303.98z"/>
			<path fill="#FFFFFF" d="M426.479,400.807l-21.202-30.128c-0.498-0.713-1.152-1.307-1.903-1.744l-162.791-94.562
				c-0.953-0.554-1.995-0.818-3.024-0.818c-2,0-3.953,0.995-5.096,2.803l-15.098,23.805c-0.878,1.386-1.152,3.072-0.765,4.665
				c0.39,1.59,1.412,2.957,2.832,3.782l162.789,94.562c0.618,0.356,1.296,0.606,1.997,0.729l36.295,6.319
				c0.348,0.061,0.693,0.089,1.035,0.089c2.04,0,3.981-1.036,5.096-2.801C427.946,405.447,427.884,402.801,426.479,400.807z
				 M385.249,397.958l-162.79-94.564l15.095-23.807l162.789,94.562l21.204,30.127L385.249,397.958z"/>
			<path fill="#FFFFFF" d="M426.479,400.807l-21.202-30.128c-0.498-0.713-1.152-1.307-1.903-1.744l-162.791-94.562
				c-0.953-0.554-5.117-3.254-6.313-4.012c-3.231-2.048-6.953-3.132-10.762-3.132c-6.938,0-13.298,3.496-17.012,9.353
				c-2.878,4.541-3.816,9.93-2.643,15.174c1.175,5.247,4.324,9.725,8.866,12.6c1.001,0.633,5.419,3.501,6.713,4.254l162.789,94.562
				c0.618,0.356,1.296,0.606,1.997,0.729l36.295,6.319c0.348,0.061,0.693,0.089,1.035,0.089c2.04,0,3.981-1.036,5.096-2.801
				C427.946,405.447,427.884,402.801,426.479,400.807z M385.249,397.958l-162.79-94.564l15.095-23.807l162.789,94.562l21.204,30.127
				L385.249,397.958z"/>
		</g>
		<polygon fill="#010101" points="298.559,280.019 298.568,280 298.556,280.019 298.546,280.047 		"/>
		<polygon fill="#010101" points="350.615,325.571 350.615,325.571 350.615,325.578 		"/>
		<polygon fill="#010101" points="327.598,361.213 327.598,361.2 327.598,361.203 		"/>
		<polygon fill="#010101" points="327.605,361.187 327.605,361.193 327.598,361.198 		"/>
		<path fill="#010101" d="M371.522,335.207c0-1.354-0.756-4.157-0.786-4.187c-1.709-4.593-6.093-7.877-11.277-7.877
			c-1.09,0-2.121,0.192-3.122,0.465c-1.747,0.462-3.32,1.315-4.656,2.449c-1.575,1.343-2.79,3.056-3.51,5.03
			c-0.012,0.026-0.012,0.061-0.024,0.082l-15.067,32.547l0,0c-0.447,0.968-0.666,1.982-0.717,2.991
			c-0.02,0.355-0.007,0.717,0.023,1.065c0.233,2.832,1.927,5.467,4.694,6.739c1.309,0.604,2.721,0.784,4.1,0.643
			c1.803-0.188,3.534-0.941,4.864-2.166c0.643-0.584,1.177-1.302,1.593-2.083l7.824-16.907l5.474,2.521l0.549-1.179l-8.133,17.679
			l-0.015,0.029c-0.132,0.293-0.296,0.562-0.452,0.837c-0.339,0.606-0.712,1.188-1.121,1.737c-0.852,1.123-1.872,2.098-2.993,2.913
			c-2.185,1.593-4.807,2.57-7.59,2.705c-0.237,0.017-0.472,0.048-0.713,0.048l0,0c-2.047,0-4.037-0.436-5.908-1.295
			c-2.804-1.294-4.964-3.404-6.374-5.908c-0.688-1.208-1.167-2.512-1.475-3.866c-0.113-0.506-0.202-1.014-0.265-1.53
			c-0.932,0.476-1.896,0.895-2.904,1.2c-1.688,0.518-3.457,0.804-5.267,0.804l0,0c-2.091,0-3.495-0.378-5.453-1.08
			c1.112,3.64,1.807,7.663,1.807,12.227v22.861h-6.034v-22.856c0-5.472-1.708-10.112-3.465-14.065
			c-8.235-18.552-31.761-21.764-32.968-21.915l-4.157-0.522l13.354-27.8h1.896c0.505,0,0.929-0.062,1.414-0.075
			c1.17-0.033,2.326-0.071,3.402-0.183c11.505-1.195,17.813-6.554,21.146-11.148c0.291-0.399,0.549-0.799,0.801-1.193
			c0.593-0.927,1.083-1.831,1.499-2.707c0.479-1.008,0.846-1.968,1.121-2.852c0.43-1.363,0.649-2.55,0.712-3.428h-49.894
			c-5.969,0-11.188,3.169-14.11,7.903c-0.686,1.106-1.244,2.295-1.653,3.554l-15.675,33.617l-0.808,1.726
			c-0.772,1.918-1.206,4.003-1.206,6.202c0,2.998,0.807,5.809,2.197,8.233l1.698,2.43l38.514,51.013v69.447h72.375v0.004h6.036
			v-51.263l19.155-38.992c0.266-0.481,0.522-0.968,0.731-1.489c0.503-1.292,0.791-2.681,0.818-4.146
			C371.522,384.124,371.522,335.207,371.522,335.207z"/>
		<path fill="#010101" d="M371.522,335.207c0-1.354-0.756-4.157-0.786-4.187c-1.709-4.593-6.093-7.877-11.277-7.877
			c-1.09,0-2.121,0.192-3.122,0.465c-1.747,0.462-3.32,1.315-4.656,2.449c-1.575,1.343-2.79,3.056-3.51,5.03
			c-0.012,0.026-0.012,0.061-0.024,0.082l-15.067,32.547l0,0c-0.447,0.968-0.666,1.982-0.717,2.991
			c-0.02,0.355-0.007,0.717,0.023,1.065c0.233,2.832,1.927,5.467,4.694,6.739c1.309,0.604,2.721,0.784,4.1,0.643
			c1.803-0.188,3.534-0.941,4.864-2.166c0.643-0.584,1.177-1.302,1.593-2.083l7.824-16.907l5.474,2.521l0.549-1.179l-8.133,17.679
			l-0.015,0.029c-0.132,0.293-0.296,0.562-0.452,0.837c-0.339,0.606-0.712,1.188-1.121,1.737c-0.852,1.123-1.872,2.098-2.993,2.913
			c-2.185,1.593-4.807,2.57-7.59,2.705c-0.237,0.017-0.472,0.048-0.713,0.048l0,0c-2.047,0-4.037-0.436-5.908-1.295
			c-2.804-1.294-4.964-3.404-6.374-5.908c-0.688-1.208-1.167-2.512-1.475-3.866c-0.113-0.506-0.202-1.014-0.265-1.53
			c-0.932,0.476-1.896,0.895-2.904,1.2c-1.688,0.518-3.457,0.804-5.267,0.804l0,0c-2.091,0-3.495-0.378-5.453-1.08
			c1.112,3.64,1.807,7.663,1.807,12.227v22.861h-6.034v-22.856c0-5.472-1.708-10.112-3.465-14.065
			c-8.235-18.552-31.761-21.764-32.968-21.915l-4.157-0.522l13.354-27.8h1.896c0.505,0,0.929-0.062,1.414-0.075
			c1.17-0.033,2.326-0.071,3.402-0.183c11.505-1.195,17.813-6.554,21.146-11.148c0.291-0.399,0.549-0.799,0.801-1.193
			c0.593-0.927,1.083-1.831,1.499-2.707c0.479-1.008,0.846-1.968,1.121-2.852c0.43-1.363,0.649-2.55,0.712-3.428h-49.894
			c-5.969,0-11.188,3.169-14.11,7.903c-0.686,1.106-1.244,2.295-1.653,3.554l-15.675,33.617l-0.808,1.726
			c-0.772,1.918-1.206,4.003-1.206,6.202c0,2.998,0.807,5.809,2.197,8.233l1.698,2.43l38.514,51.013v69.447h72.375v0.004h6.036
			v-51.263l19.155-38.992c0.266-0.481,0.522-0.968,0.731-1.489c0.503-1.292,0.791-2.681,0.818-4.146
			C371.522,384.124,371.522,335.207,371.522,335.207z"/>
		<path fill="#FFFFFF" d="M351.763,375.624c0.409-0.549,0.782-1.131,1.121-1.737c0.156-0.274,0.32-0.544,0.452-0.837l0.015-0.029
			l8.133-17.679l-0.549,1.179L355.461,354l-7.824,16.907c-0.354,0.666-0.812,1.265-1.33,1.797l5.306,3.084
			C351.662,375.729,351.717,375.682,351.763,375.624z"/>
		<path fill="#FFFFFF" d="M318.271,370.701c-2.623,0-5.161-0.562-7.556-1.665c-4.377-2.009-7.719-5.617-9.397-10.15
			c-0.432-1.164-0.659-2.254-0.797-2.971c-0.303-1.655-0.368-3.359-0.199-5.089c0.151-1.519,0.508-3.044,1.059-4.516
			c0.125-0.419,0.271-0.84,0.459-1.246l23.547-51.234v-0.315l0.7-1.196c0.592-1.231,1.348-2.4,2.298-3.566
			c3.479-4.248,8.582-6.68,14.005-6.68c2.627,0,5.165,0.559,7.553,1.656c7.459,3.434,11.653,11.497,10.198,19.612
			c-0.201,1.154-1.001,3.69-1.348,4.432c0,0-0.984,2.137-24.076,52.379c-0.171,0.363-0.364,0.72-0.571,1.07
			c-0.82,1.492-1.747,2.748-2.812,3.859c-1.198,1.246-2.545,2.303-4.013,3.149C324.568,369.84,321.425,370.701,318.271,370.701
			L318.271,370.701z"/>
		<path fill="#010101" d="M307.032,348.425c-0.366,0.977-0.606,1.98-0.707,2.995c-0.113,1.127-0.082,2.26,0.127,3.379
			c0.125,0.668,0.276,1.337,0.521,1.992c1.121,3.021,3.345,5.425,6.269,6.77c1.6,0.734,3.288,1.104,5.027,1.104
			c2.165,0,4.231-0.604,6.038-1.66c0.978-0.565,1.88-1.268,2.666-2.091c0.705-0.736,1.316-1.57,1.821-2.485
			c0.146-0.265,0.309-0.52,0.44-0.796c0,0,24.05-52.327,24.1-52.435c0.051-0.111,0.725-2.115,0.871-2.919
			c0.938-5.271-1.701-10.729-6.784-13.069c-1.596-0.734-3.289-1.106-5.033-1.106c-3.658,0-7.067,1.697-9.33,4.461
			c-0.636,0.779-1.195,1.624-1.632,2.567c0.009-0.007,0.009-0.018,0.014-0.024l-0.014,0.026c0,0.003-0.007,0.01-0.007,0.018
			l-24.101,52.422C307.195,347.851,307.138,348.144,307.032,348.425z"/>
		<path id="hand_outline" fill="#FFFFFF" d="M272.413,486.115c-3.332,0-6.031-2.701-6.031-6.033V412.66l-37.299-49.402l-1.828-2.618
			c-0.102-0.142-0.195-0.293-0.282-0.447c-1.966-3.416-3-7.305-3-11.233c0-2.895,0.551-5.74,1.641-8.454
			c0.041-0.104,16.469-35.333,16.469-35.333c0.537-1.56,1.259-3.065,2.137-4.487c4.154-6.734,11.349-10.761,19.237-10.761h49.894
			c1.676,0,3.274,0.697,4.41,1.919c1.146,1.225,1.727,2.87,1.605,4.537c-0.103,1.444-0.437,3.104-0.97,4.808
			c-0.371,1.19-0.853,2.405-1.419,3.616c-0.566,1.179-1.189,2.305-1.87,3.38c-0.32,0.501-0.644,0.999-1.01,1.502
			c-3.916,5.4-11.514,12.156-25.403,13.601c-1.109,0.112-2.3,0.163-3.501,0.202l-8.235,17.146
			c7.938,1.807,25.368,7.502,33.165,23.583c0.838-0.419,1.765-0.636,2.702-0.636c0.682,0,1.545,2.142,2.206,2.38
			c1.632,0.582,2.123-1.299,3.243-1.299c1.159,0,2.339-0.184,3.504-0.539c0.579-0.176,1.21-0.438,1.922-0.806
			c0.861-0.441,1.8-0.66,2.745-0.66c0.189,0,0.385,0.01,0.571,0.029c0.164-0.51,0.361-1.008,0.58-1.494l14.943-32.269
			c1.062-2.867,2.873-5.446,5.221-7.453c2.074-1.764,4.438-3.005,7.02-3.695c1.657-0.447,3.191-0.664,4.679-0.664
			c7.505,0,14.306,4.747,16.934,11.811l-0.023,0.007c1.164,2.733,1.184,6.085,1.184,6.277c0,0,0.013,49.042,0.013,49.098
			c-0.036,2.134-0.452,4.225-1.233,6.229c-0.304,0.777-0.682,1.509-1.078,2.229l-18.399,37.464v49.859
			c0,3.333-2.702,6.037-6.027,6.037L272.413,486.115z"/>
		<g>
			<path fill="#010101" d="M211.587,279.811c-4.167,6.573-2.221,15.282,4.359,19.447l15.093-23.807
				C224.463,271.284,215.762,273.234,211.587,279.811z"/>
			<path fill="#FFFFFF" d="M212.718,304.354c-4.542-2.875-7.691-7.353-8.866-12.6c-1.174-5.244-0.235-10.633,2.643-15.174
				c3.714-5.856,10.073-9.353,17.012-9.353c3.809,0,7.53,1.084,10.762,3.132C235.619,271.216,213.719,304.986,212.718,304.354z"/>
			<path fill="#010101" d="M211.587,279.811c-4.167,6.573-2.221,15.282,4.359,19.447l15.093-23.807
				C224.463,271.284,215.762,273.234,211.587,279.811z"/>
		</g>
		<g>
			<path fill="none" d="M310.123,364.218c0.838-0.419,1.765-0.636,2.702-0.636c0.575,0,1.146,0.104,1.709,0.268l-6.999-4.066
				C308.473,361.177,309.356,362.635,310.123,364.218z"/>
			<path fill="#FFFFFF" d="M407.393,397.818l2.273-3.585l-12.184-17.312c0,0-3.396,1.419-4.763,3.587
				c-1.373,2.16-0.139,5.404,0.765,5.977c-0.902-0.575-4.36-0.304-5.728,1.862c-1.381,2.165-1.218,5.841-1.218,5.841
				L407.393,397.818z"/>
			<path fill="#FFFFFF" d="M348.146,331.17c0.013-0.021,0.013-0.056,0.023-0.082c0.72-1.975,1.936-3.688,3.51-5.03
				c1.336-1.134,2.909-1.987,4.656-2.449c1.001-0.272,2.032-0.465,3.122-0.465c5.186,0,9.568,3.284,11.277,7.877
				c0.03,0.029,0.786,2.832,0.786,4.187c0,0,0,6.744,0,15.225l6.035,3.505c-0.007-10.051-0.007-18.729-0.007-18.729
				c0-0.192-0.02-3.544-1.184-6.277l0.023-0.007c-2.628-7.062-9.429-11.811-16.934-11.811c-1.486,0-3.021,0.217-4.679,0.664
				c-2.582,0.69-4.944,1.932-7.02,3.695c-2.348,2.007-4.157,4.586-5.221,7.453l-1.708,3.682l5.242,3.041L348.146,331.17z"/>
			<path fill="#FFFFFF" d="M314.098,309.686c0.366-0.503,0.688-1.001,1.01-1.502c0.681-1.075,1.304-2.201,1.87-3.38
				c0.566-1.211,1.048-2.426,1.419-3.616c0.533-1.703,0.867-3.363,0.97-4.808c0.12-1.667-0.46-3.312-1.605-4.537
				c-1.136-1.222-2.734-1.919-4.41-1.919h-7.271v6.033h7.271c-0.062,0.878-0.282,2.064-0.712,3.428
				c-0.275,0.884-0.643,1.844-1.121,2.852c-0.416,0.876-0.906,1.78-1.499,2.707c-0.252,0.395-0.51,0.794-0.801,1.193
				c-0.845,1.159-1.877,2.367-3.138,3.549v2.732l3.616,2.098C311.49,312.896,312.973,311.236,314.098,309.686z"/>
			<path fill="#010101" d="M371.522,335.207c0-1.354-0.756-4.157-0.786-4.187c-1.709-4.593-6.093-7.877-11.277-7.877
				c-1.09,0-2.121,0.192-3.122,0.465c-1.747,0.462-3.32,1.315-4.656,2.449c-1.575,1.343-2.79,3.056-3.51,5.03
				c-0.012,0.026-0.012,0.061-0.024,0.082l-2.07,4.478l25.447,14.784C371.522,341.951,371.522,335.207,371.522,335.207z"/>
			<path fill="#010101" d="M309.217,306.137c0.291-0.399,0.549-0.799,0.801-1.193c0.593-0.927,1.083-1.831,1.499-2.707
				c0.479-1.008,0.846-1.968,1.121-2.852c0.43-1.363,0.649-2.55,0.712-3.428h-7.271v13.729
				C307.34,308.504,308.372,307.296,309.217,306.137z"/>
			<path fill="#FFFFFF" d="M306.079,357.777v1.164l1.456,0.842C307.068,359.093,306.585,358.422,306.079,357.777z"/>
			<path fill="#FFFFFF" d="M306.079,312.418v4.896c1.343-0.897,2.546-1.834,3.616-2.799L306.079,312.418z"/>
			<polygon fill="#FFFFFF" points="343.53,341.147 346.075,335.647 340.833,332.606 338.287,338.104 			"/>
			<path fill="#010101" d="M400.343,374.149l-22.784-13.235l-6.035-3.503c0-11.438,0-22.204,0-22.204
				c0-1.354-0.756-4.157-0.786-4.187c-1.709-4.593-6.093-7.877-11.277-7.877c-1.09,0-2.121,0.192-3.122,0.465
				c-1.747,0.462-3.32,1.315-4.656,2.449c-1.574,1.343-2.79,3.056-3.51,5.03c-0.012,0.026-0.012,0.061-0.023,0.082l-15.068,32.547
				c-0.447,0.968-0.666,1.982-0.717,2.991c-0.02,0.355-0.008,0.717,0.023,1.065c0.233,2.832,1.927,5.467,4.694,6.739
				c1.309,0.604,2.721,0.784,4.1,0.643c0.309-0.032,0.618-0.09,0.927-0.157c0.15-0.033,0.309-0.076,0.46-0.122
				c0.127-0.034,0.252-0.072,0.377-0.113c0.201-0.067,0.404-0.142,0.605-0.224c0.024-0.012,0.056-0.026,0.087-0.041
				c0.536-0.229,1.06-0.5,1.545-0.837c0.302-0.202,0.6-0.421,0.863-0.672c0.643-0.584,1.177-1.302,1.593-2.083l7.824-16.907
				l5.474,2.521l0.549-1.179l-8.133,17.679l-0.015,0.029c-0.132,0.293-0.296,0.562-0.452,0.837
				c-0.339,0.606-0.712,1.188-1.121,1.737c-0.521,0.684-1.115,1.294-1.744,1.864l0.013,0.01c-0.403,0.363-0.82,0.717-1.262,1.039
				c-1.485,1.081-3.173,1.87-4.97,2.312l-0.023-0.015c-0.853,0.209-1.708,0.363-2.597,0.407c-0.237,0.017-0.472,0.048-0.713,0.048
				c-2.047,0-4.037-0.436-5.908-1.295c-2.804-1.294-4.964-3.404-6.374-5.908c-0.139-0.243-0.265-0.491-0.385-0.741
				c-0.339-0.731-0.61-1.496-0.837-2.273l-0.039-0.022c-0.074-0.273-0.15-0.548-0.214-0.829c-0.113-0.506-0.202-1.014-0.265-1.53
				c-0.666,0.342-1.349,0.63-2.047,0.893l-0.045-0.026c-0.275,0.101-0.528,0.25-0.812,0.334c-1.688,0.518-3.457,0.804-5.267,0.804
				c-2.091,0-3.495-0.378-5.453-1.08c1.112,3.64,1.807,7.663,1.807,12.227v22.861h-6.034v-22.856c0-0.626-0.023-1.239-0.069-1.846
				c-0.013-0.216-0.038-0.431-0.056-0.645c-0.039-0.373-0.077-0.743-0.128-1.104c-0.036-0.274-0.082-0.546-0.125-0.817
				c-0.044-0.268-0.094-0.534-0.145-0.799c-0.064-0.332-0.127-0.662-0.202-0.986c-0.026-0.094-0.051-0.188-0.069-0.287
				c-0.667-2.771-1.654-5.298-2.671-7.581c-8.235-18.552-31.761-21.764-32.968-21.915l-4.157-0.522l13.354-27.8h1.896
				c0.505,0,0.929-0.062,1.414-0.075c1.17-0.033,2.326-0.071,3.402-0.183c11.505-1.195,17.813-6.554,21.146-11.148
				c0.291-0.399,0.549-0.799,0.801-1.193c0.593-0.927,1.083-1.831,1.499-2.707c0.479-1.008,0.846-1.968,1.121-2.852
				c0.43-1.363,0.649-2.55,0.712-3.428h-49.894c-5.969,0-11.188,3.169-14.11,7.903c-0.686,1.106-1.244,2.295-1.653,3.554
				l-15.675,33.617l-0.808,1.726c-0.772,1.918-1.206,4.003-1.206,6.202c0,2.998,0.807,5.809,2.197,8.233l1.698,2.43l38.514,51.013
				v69.447h33.666h38.709v0.004h6.036v-51.263l16.773-34.149l2.382-4.843c0.103-0.19,0.202-0.378,0.302-0.57l5.204,3.022
				l9.764,5.675l36.298,6.318L400.343,374.149z M386.54,394.188c0,0-0.163-3.676,1.218-5.841c1.366-2.166,4.824-2.438,5.728-1.862
				c-0.902-0.572-2.138-3.816-0.765-5.977c1.367-2.168,4.763-3.587,4.763-3.587l12.184,17.312l-2.273,3.585L386.54,394.188z"/>
			<g>
				<path fill="#FFFFFF" d="M312.825,363.582c-0.938,0-1.864,0.217-2.702,0.636c-0.767-1.583-1.65-3.041-2.588-4.435l-1.456-0.842
					v11.14c1.374,3.431,2.515,7.312,2.515,11.765v22.856h6.034v-22.861c0-4.563-0.693-8.587-1.807-12.227
					c1.958,0.702,3.362,1.08,5.453,1.08c1.81,0,3.577-0.286,5.267-0.804c0.284-0.084,0.537-0.233,0.812-0.334l-10.552-5.243
					C313.242,364.147,313.4,363.582,312.825,363.582z"/>
				<path fill="#FFFFFF" d="M426.479,400.807l-21.202-30.128c-0.498-0.713-1.152-1.307-1.903-1.744l-25.813-14.997l-6.035-3.505
					c0,2.237,0,4.59,0,6.978l6.035,3.505l22.784,13.235l21.204,30.127l-36.298-6.318l-9.764-5.675l-5.222-3.035l-20.246-11.76
					c0.628-0.57,1.223-1.181,1.744-1.864c0.409-0.549,0.782-1.131,1.121-1.737c0.156-0.274,0.32-0.544,0.452-0.837l0.015-0.029
					l8.133-17.679l-0.549,1.179l-5.474-2.521l-7.824,16.907c-0.416,0.781-0.95,1.499-1.593,2.083
					c-0.518,0.477-1.109,0.856-1.728,1.187c-0.978,0.515-2.04,0.866-3.138,0.979c-1.379,0.142-2.791-0.039-4.1-0.643
					c-2.769-1.272-4.461-3.907-4.694-6.739c-0.012-0.176-0.007-0.356-0.012-0.534c-0.008-0.181-0.026-0.354-0.013-0.531
					c0.051-1.009,0.27-2.023,0.717-2.991l10.452-22.569l-5.243-3.044l-10.689,23.09c-0.219,0.486-0.416,0.984-0.58,1.494
					c-0.188-0.02-0.382-0.029-0.571-0.029c-0.529,0-1.053,0.087-1.568,0.224c-0.402,0.111-0.799,0.243-1.177,0.438
					c-0.712,0.367-1.343,0.63-1.922,0.806c-1.165,0.355-2.345,0.539-3.504,0.539c-1.12,0-2.135,0.023-3.761-0.559
					c-0.105-0.038-1.128-0.488-1.233-0.52l11.073,5.972c0.705-0.265,1.418-0.522,2.092-0.866c0.062,0.517,0.15,1.024,0.265,1.53
					c0.062,0.291,0.171,0.564,0.253,0.852c0.301,1.046,0.681,2.066,1.222,3.015c1.41,2.504,3.57,4.614,6.374,5.908
					c1.871,0.859,3.861,1.295,5.908,1.295c0.241,0,0.476-0.031,0.713-0.048c0.889-0.044,1.744-0.198,2.597-0.407l23.822,13.839
					l-16.773,34.149v51.259h-6.036l0,0H306.08v6.033l44.745,0.008c3.325,0,6.026-2.704,6.026-6.037v-49.858l15.977-32.52
					l9.393,5.461c0.618,0.356,1.296,0.606,1.997,0.729l36.295,6.319c0.348,0.061,0.693,0.089,1.035,0.089
					c2.04,0,3.981-1.036,5.097-2.801C427.946,405.447,427.884,402.801,426.479,400.807z"/>
			</g>
		</g>
		<path fill="#FFFFFF" d="M311.592,303.058c0.301-0.599,0.567-1.17,0.769-1.645c0.128-0.318,0.258-0.675,0.381-1.013
			c0.298-0.837,0.562-1.773,0.759-2.68c0.222-1.06,0.286-1.918,0.265-2.536h-13.372c-1.819,0-3.514-0.927-4.495-2.458
			c-0.981-1.532-1.115-3.458-0.354-5.111l3.331-7.244c0.032-0.075,0.065-0.149,0.101-0.222c0.595-1.272,1.354-2.465,2.32-3.645
			c3.338-4.076,8.244-6.414,13.461-6.414c2.508,0,4.948,0.535,7.251,1.592c7.181,3.3,11.214,11.06,9.814,18.871
			c-0.269,1.54-0.681,2.916-1.256,4.179C330.564,294.732,308.871,308.435,311.592,303.058z"/>
		<path fill="#010101" d="M317.633,290.724c0.51,0.514,0.837,1.182,1.078,1.916c0.572,1.731,0.479,3.96,0.007,6.207
			c-0.248,1.149-0.575,2.295-0.958,3.37c-0.15,0.419-0.303,0.83-0.462,1.225c-0.25,0.597-0.572,1.29-0.941,2.026
			c-3.271,6.462-11.674,17.317-31.413,17.991c-0.01,0-0.02,0.003-0.031,0.003l-7.225,16.116c5.139,1.213,14.286,4.086,22.206,10.271
			l25.809-57.321c0.436-0.95,0.691-1.933,0.863-2.916c0.944-5.278-1.693-10.737-6.784-13.077c-1.593-0.73-3.289-1.105-5.026-1.105
			c-3.667,0-7.068,1.695-9.33,4.457c-0.643,0.784-1.203,1.631-1.639,2.573c0.008-0.006,0.008-0.013,0.008-0.021l-0.008,0.021
			l-0.005,0.016l-3.39,7.37h16.353L317.633,290.724z"/>
	</g>
	<g>
		<path fill="none" d="M311.221,302.831c0.296-0.585,0.562-1.144,0.756-1.622c0.113-0.276,0.227-0.592,0.34-0.909
			c0.321-0.896,0.567-1.759,0.751-2.608c0.145-0.686,0.214-1.263,0.245-1.729h-15.448l-9.655,21.341
			C301.744,315.94,308.204,308.802,311.221,302.831z"/>
	</g>
	<text transform="matrix(1 0 0 1 171.4746 608.3184)" font-family="'Oswald'" font-size="41.317">OCCUPY DESIGN</text>
</g>
</svg>
